<?xml version="1.0" encoding="UTF-8"?>
<!DOCTYPE svg PUBLIC "-//W3C//DTD SVG 1.1//EN" "http://www.w3.org/Graphics/SVG/1.1/DTD/svg11.dtd">
<svg xmlns="http://www.w3.org/2000/svg" version="1.1" width="128px" height="128px" style="shape-rendering:geometricPrecision; text-rendering:geometricPrecision; image-rendering:optimizeQuality; fill-rule:evenodd; clip-rule:evenodd" xmlns:xlink="http://www.w3.org/1999/xlink">
<g><path style="opacity:0.995" fill="#e36216" d="M 82.5,47.5 C 83.4097,50.9922 85.0764,53.9922 87.5,56.5C 93.6288,71.5584 89.9621,83.5584 76.5,92.5C 75.0015,87.4641 75.3349,82.4641 77.5,77.5C 78.3382,77.1583 78.6716,76.4916 78.5,75.5C 79.404,74.791 79.7373,73.791 79.5,72.5C 79.5,72.1667 79.5,71.8333 79.5,71.5C 80.1667,71.5 80.5,71.1667 80.5,70.5C 81.2628,65.0548 79.5961,60.7214 75.5,57.5C 69.4911,48.8016 63.8244,39.8016 58.5,30.5C 53.8251,37.1779 50.4917,44.5113 48.5,52.5C 45.8621,49.5256 43.1954,46.5256 40.5,43.5C 45.5806,29.0166 53.9139,16.6833 65.5,6.5C 66.5529,7.43832 67.2196,8.60499 67.5,10C 64.6148,18.9119 66.1148,27.0785 72,34.5C 75.5191,38.9032 79.0191,43.2366 82.5,47.5 Z"/></g>
<g><path style="opacity:1" fill="#09c850" d="M 65.5,96.5 C 66.7908,92.3989 66.7908,88.3989 65.5,84.5C 66.8663,74.7681 70.1997,65.7681 75.5,57.5C 79.5961,60.7214 81.2628,65.0548 80.5,70.5C 79.8333,70.5 79.5,70.8333 79.5,71.5C 79.5,71.8333 79.5,72.1667 79.5,72.5C 78.596,73.209 78.2627,74.209 78.5,75.5C 77.6618,75.8417 77.3284,76.5084 77.5,77.5C 75.3349,82.4641 75.0015,87.4641 76.5,92.5C 78.2483,103.379 84.5817,107.879 95.5,106C 106.258,101.522 109.758,93.6887 106,82.5C 101.108,72.0502 96.7743,61.3836 93,50.5C 91.383,52.7632 89.5497,54.7632 87.5,56.5C 85.0764,53.9922 83.4097,50.9922 82.5,47.5C 89.2081,41.3899 96.0414,35.3899 103,29.5C 103.333,29.8333 103.667,30.1667 104,30.5C 103.016,35.326 101.85,40.1594 100.5,45C 101.33,47.8017 102.163,50.635 103,53.5C 107.603,61.7075 111.937,70.0408 116,78.5C 121.478,100.914 112.978,113.914 90.5,117.5C 76.9246,116.582 68.5913,109.582 65.5,96.5 Z"/></g>
<g><path style="opacity:1" fill="#ebe5e0" d="M 40.5,43.5 C 43.1954,46.5256 45.8621,49.5256 48.5,52.5C 55.9398,62.0463 61.2731,72.7129 64.5,84.5C 58.0399,86.1034 53.7066,83.7701 51.5,77.5C 51.5,76.8333 51.1667,76.5 50.5,76.5C 50.6716,75.5084 50.3382,74.8417 49.5,74.5C 49.5,74.1667 49.5,73.8333 49.5,73.5C 49.5,72.8333 49.1667,72.5 48.5,72.5C 46.9713,65.7766 43.638,60.1099 38.5,55.5C 37.6143,56.325 37.281,57.325 37.5,58.5C 36.596,59.209 36.2627,60.209 36.5,61.5C 31.8521,69.4625 27.6854,77.7958 24,86.5C 20.052,100.619 25.2187,108.952 39.5,111.5C 48.871,109.792 53.871,104.125 54.5,94.5C 57.9828,95.0101 61.3162,95.6768 64.5,96.5C 61.8572,115.981 50.8572,124.147 31.5,121C 18.688,116.901 12.0213,108.068 11.5,94.5C 12.1414,90.4598 12.9747,86.4598 14,82.5C 19.439,72.7254 24.439,62.7254 29,52.5C 29.8801,46.5903 29.0468,40.9236 26.5,35.5C 27.0347,33.8987 28.0347,33.3987 29.5,34C 33.3338,37.0024 37.0005,40.1691 40.5,43.5 Z"/></g>
<g><path style="opacity:1" fill="#e16217" d="M 48.5,72.5 C 49.1667,72.5 49.5,72.8333 49.5,73.5C 49.5,73.8333 49.5,74.1667 49.5,74.5C 49.3284,75.4916 49.6618,76.1583 50.5,76.5C 51.1667,76.5 51.5,76.8333 51.5,77.5C 53.7066,83.7701 58.0399,86.1034 64.5,84.5C 64.8333,84.5 65.1667,84.5 65.5,84.5C 66.7908,88.3989 66.7908,92.3989 65.5,96.5C 65.1667,96.5 64.8333,96.5 64.5,96.5C 61.3162,95.6768 57.9828,95.0101 54.5,94.5C 41.5305,87.5781 35.5305,76.5781 36.5,61.5C 37.404,60.791 37.7373,59.791 37.5,58.5C 37.281,57.325 37.6143,56.325 38.5,55.5C 43.638,60.1099 46.9713,65.7766 48.5,72.5 Z"/></g>
</svg>
